<?xml version="1.0" encoding="utf-8"?>
<!-- Generator: Adobe Illustrator 27.4.0, SVG Export Plug-In . SVG Version: 6.00 Build 0)  -->
<svg version="1.2" baseProfile="tiny" id="Livello_1"
	 xmlns="http://www.w3.org/2000/svg" xmlns:xlink="http://www.w3.org/1999/xlink" x="0px" y="0px" viewBox="0 0 56.8 56.8"
	 overflow="visible" xml:space="preserve">
<g>
	
		<circle fill="none" stroke="#323E48" stroke-width="1.5" stroke-linecap="round" stroke-miterlimit="10" cx="28.4" cy="28.4" r="21.2"/>
</g>
<g id="Layer_2_00000171696813702833406850000011125637724817365430_">
	<g id="Icons_black_00000113348806721981772660000002136195271101609867_">
		<g id="Envelope_00000160169441371724975740000013252452142981168000_">
			<path fill="#323E48" d="M30.9,37.2H21c-0.3,0-0.5-0.2-0.5-0.5V22.6c0-0.3,0.2-0.5,0.5-0.5h15.7c0.3,0,0.5,0.2,0.5,0.5v5.7
				c0,0.4,0.3,0.7,0.7,0.7c0.4,0,0.7-0.3,0.7-0.7v-7.1c0-0.3-0.2-0.5-0.5-0.5H19.6c-0.3,0-0.5,0.2-0.5,0.5v16.9
				c0,0.3,0.2,0.5,0.5,0.5h11.3c0.4,0,0.7-0.4,0.6-0.8C31.5,37.5,31.2,37.2,30.9,37.2z"/>
			<path fill="#323E48" d="M37.9,30.4c-0.4,0-0.7,0.3-0.7,0.7v1.1c0,0.4-0.2,0.8-0.5,1.1l-3.7,3.7c-0.3,0.3-0.3,0.7,0,1
				c0.3,0.3,0.7,0.3,1,0c0,0,0,0,0,0l3.7-3.7c0.5-0.5,0.9-1.3,0.9-2.1v-1.1C38.6,30.7,38.3,30.4,37.9,30.4z"/>
		</g>
	</g>
</g>
</svg>
