<?xml version="1.0" encoding="utf-8"?>
<!-- Generator: Adobe Illustrator 27.4.0, SVG Export Plug-In . SVG Version: 6.00 Build 0)  -->
<svg version="1.2" baseProfile="tiny" id="Livello_1"
	 xmlns="http://www.w3.org/2000/svg" xmlns:xlink="http://www.w3.org/1999/xlink" x="0px" y="0px" viewBox="0 0 56.8 56.8"
	 overflow="visible" xml:space="preserve">
<g>
	
		<polyline fill="none" stroke="#323E48" stroke-width="1.5" stroke-linecap="round" stroke-linejoin="round" stroke-miterlimit="10" points="
		27.7,40.4 38.7,28.6 25.5,15.5 25.5,25.8 	"/>
	<path fill="#323E48" d="M25.5,27.6c-0.6,0-1,0.4-1,1c0,0.6,0.4,1,1,1s1-0.4,1-1C26.5,28.1,26.1,27.6,25.5,27.6z"/>
	<path fill="#323E48" d="M25.5,33.6c-0.6,0-1,0.4-1,1c0,0.6,0.4,1,1,1s1-0.4,1-1C26.5,34.1,26.1,33.6,25.5,33.6z"/>
	<path fill="#323E48" d="M25.5,30.6c-0.6,0-1,0.4-1,1c0,0.6,0.4,1,1,1s1-0.4,1-1C26.5,31.1,26.1,30.6,25.5,30.6z"/>
	
		<line fill="none" stroke="#323E48" stroke-width="1.5" stroke-linecap="round" stroke-miterlimit="10" x1="27.7" y1="40.4" x2="25.5" y2="37.4"/>
	
		<circle fill="none" stroke="#323E48" stroke-width="1.5" stroke-linecap="round" stroke-miterlimit="10" cx="28.4" cy="28.4" r="21.2"/>
</g>
</svg>
