<?xml version="1.0" encoding="utf-8"?>
<!-- Generator: Adobe Illustrator 27.4.0, SVG Export Plug-In . SVG Version: 6.00 Build 0)  -->
<svg version="1.2" baseProfile="tiny" id="Livello_1"
	 xmlns="http://www.w3.org/2000/svg" xmlns:xlink="http://www.w3.org/1999/xlink" x="0px" y="0px" viewBox="0 0 56.8 56.8"
	 overflow="visible" xml:space="preserve">
<g>
	<path fill="#ffffff" d="M34.9,37.2c-0.2-0.1-0.4-0.2-0.6-0.1c-0.1,0-0.2,0.1-0.3,0.2l-2,2.4c-0.4,0.5-1.1,0.9-1.7,0.9l-8.5,0.7
		c-0.1,0-0.2,0-0.2,0.1c-0.2,0.1-0.4,0.4-0.4,0.6c0,0.3,0.3,0.6,0.7,0.6l8.6-0.8c0.1,0,0.3,0,0.4-0.1c0.8-0.2,1.6-0.7,2.2-1.3l2-2.3
		C35.2,37.9,35.2,37.4,34.9,37.2C34.9,37.2,34.9,37.2,34.9,37.2z"/>
	<path fill="#ffffff" d="M43.2,24h-6.9c-1.7-5.1-5.6-9.4-11.1-11.4c-1.9-0.7-4-1-6.1-1c-6.1,0-11.7,3-15.1,8.1
		C-1.5,28,0.7,39.2,9,44.8c3,2,6.5,3.1,10.1,3.1c4.1,0,8.2-1.4,11.4-4c0.3-0.2,0.3-0.6,0.1-0.9c-0.1-0.2-0.3-0.3-0.6-0.2h-0.1
		c-0.1,0-0.2,0.1-0.3,0.1c-1.7,1.4-3.7,2.4-5.7,3c0.5-0.5,1-1,1.5-1.6c0.2-0.3,0.1-0.7-0.1-0.9c-0.1-0.1-0.3-0.1-0.4-0.1
		c-0.2,0-0.3,0.1-0.4,0.2c-1.3,1.7-2.9,2.8-4.6,3V30.4h8.5c0,3-0.6,6-1.6,8.8c-0.1,0.3,0.1,0.7,0.4,0.8c0.1,0,0.2,0,0.3,0
		c0.2,0,0.5-0.2,0.5-0.4c1.1-3,1.6-6.1,1.7-9.3h5.7v4c-0.1,0.3-0.2,0.6-0.3,0.9c-0.1,0.3,0,0.7,0.4,0.8c0.3,0.1,0.7,0,0.9-0.3
		c0,0,0-0.1,0-0.1h7c0.1,0,0.1,0,0.1-0.1c0,0,0.1-0.1,0.1-0.1v-1.6c0-0.1,0-0.1-0.1-0.1s-0.1-0.1-0.1-0.1h-5.5c-0.1,0-0.1,0-0.1-0.1
		v-2.7c0-0.1,0-0.1,0.1-0.1h3.6c0.1,0,0.1,0,0.1-0.1c0,0,0.1-0.1,0.1-0.1v-1.6c0-0.1,0-0.1-0.1-0.1s-0.1-0.1-0.1-0.1h-3.6
		c-0.1,0-0.1,0-0.1-0.1v-2.6c0-0.1,0-0.1,0.1-0.1h5.5c0.1,0,0.1,0,0.1-0.1s0.1-0.1,0.1-0.1v-1.6c0-0.1,0-0.1-0.1-0.1
		S43.2,24,43.2,24z M14.4,13.5c-1.2,1.1-2.1,2.4-2.9,3.8c-1.8,0.3-3.5,0.8-5.2,1.4C8.4,16.3,11.2,14.5,14.4,13.5z M4.8,20.7
		c1.9-0.8,3.9-1.5,5.9-1.9c-1.3,3.2-2,6.7-2.1,10.2H2.3C2.4,26.1,3.3,23.2,4.8,20.7z M4.8,38.7L4.8,38.7c-1.6-2.5-2.5-5.4-2.6-8.3
		h6.4c0,3.5,0.7,7,2.1,10.2C8.7,40.2,6.7,39.5,4.8,38.7z M6.4,40.7c1.7,0.6,3.4,1.1,5.1,1.4c0.7,1.4,1.7,2.7,2.9,3.8
		C11.2,45,8.5,43.2,6.4,40.7z M18.5,46.5c-2.1-0.3-3.9-1.8-5.4-4.2c1.8,0.3,3.6,0.4,5.4,0.4V46.5z M18.5,41.5
		c-2.1,0-4.1-0.2-6.2-0.6C10.8,37.6,10,34,10,30.4h8.5V41.5z M18.5,29.1H10c0-3.6,0.8-7.2,2.3-10.5c2-0.4,4.1-0.6,6.2-0.6V29.1z
		 M18.5,16.6c-1.8,0-3.6,0.2-5.4,0.4c1.5-2.4,3.3-3.9,5.4-4.2V16.6z M31.9,18.7c-1.7-0.6-3.4-1.1-5.1-1.4c-0.7-1.4-1.7-2.6-2.8-3.7
		C27,14.5,29.8,16.3,31.9,18.7z M19.7,12.9c2.1,0.3,3.9,1.8,5.4,4.2c-1.8-0.3-3.6-0.4-5.4-0.4V12.9z M19.7,29.1V17.9
		c2.1,0,4.1,0.2,6.2,0.6c1.5,3.3,2.3,6.9,2.3,10.5L19.7,29.1z M29.5,29.1c0-3.5-0.7-7-2.1-10.2c2,0.4,4,1.1,5.9,1.9
		c0.8,1.3,1.5,2.8,1.9,4.2v4.1H29.5z"/>
	<path fill="#ffffff" d="M54,24c0,0-0.1-0.1-0.1-0.1h-2c-0.1,0-0.1,0-0.1,0.1s-0.1,0.1-0.1,0.1l0,7c0,0,0,0.1,0,0.1c0,0,0,0-0.1,0
		l-4.3-7.1c0-0.1-0.1-0.1-0.2-0.1h-1.9c-0.1,0-0.1,0-0.1,0.1S45,24.1,45,24.2v11.3c0,0.1,0,0.1,0.1,0.1c0,0,0.1,0.1,0.1,0.1h2
		c0.1,0,0.1,0,0.1-0.1c0,0,0.1-0.1,0.1-0.1l0-7.1c0,0,0-0.1,0-0.1c0,0,0,0,0.1,0l4.3,7.2c0,0.1,0.1,0.1,0.2,0.1h1.9
		c0.1,0,0.1,0,0.1-0.1c0,0,0.1-0.1,0.1-0.1V24.2C54.1,24.1,54.1,24.1,54,24z"/>
</g>
</svg>
