<?xml version="1.0" encoding="utf-8"?>
<!-- Generator: Adobe Illustrator 27.4.0, SVG Export Plug-In . SVG Version: 6.00 Build 0)  -->
<svg version="1.2" baseProfile="tiny" id="Livello_1"
	 xmlns="http://www.w3.org/2000/svg" xmlns:xlink="http://www.w3.org/1999/xlink" x="0px" y="0px" viewBox="0 0 56.8 56.8"
	 overflow="visible" xml:space="preserve">
<g>
	<path fill="#ffffff" d="M37.4,37.2C37.3,37,37,37,36.8,37.1c-0.1,0-0.2,0.1-0.3,0.2l-2,2.4c-0.4,0.5-1.1,0.9-1.7,0.9l-8.5,0.7
		c-0.1,0-0.2,0-0.2,0.1c-0.2,0.1-0.4,0.4-0.4,0.6c0,0.3,0.3,0.6,0.7,0.6l8.6-0.8c0.1,0,0.3,0,0.4-0.1c0.8-0.2,1.6-0.7,2.2-1.3l2-2.3
		C37.8,37.9,37.7,37.4,37.4,37.2C37.5,37.2,37.5,37.2,37.4,37.2z"/>
	<path fill="#ffffff" d="M40.9,23.9h-2c0,0-0.1,0-0.1,0c-1.7-5.1-5.6-9.4-11.1-11.3c-1.9-0.7-4-1-6.1-1c-6.1,0-11.7,3-15.1,8.1
		C1,28,3.3,39.2,11.6,44.8c3,2,6.5,3.1,10.1,3.1c4.1,0,8.2-1.4,11.4-4c0.3-0.2,0.3-0.6,0.1-0.9c-0.1-0.2-0.3-0.3-0.6-0.2h-0.1
		c-0.1,0-0.2,0.1-0.3,0.1c-1.7,1.4-3.7,2.4-5.7,3c0.5-0.5,1-1,1.5-1.6c0.2-0.3,0.1-0.7-0.1-0.9c-0.1-0.1-0.3-0.1-0.4-0.1
		c-0.2,0-0.3,0.1-0.4,0.2c-1.3,1.7-2.9,2.8-4.6,3V30.4h8.5c0,3-0.6,6-1.6,8.8c-0.1,0.3,0.1,0.7,0.4,0.8c0.1,0,0.2,0,0.3,0
		c0.2,0,0.5-0.2,0.5-0.4c1.1-3,1.6-6.1,1.7-9.3h6.4c-0.1,1.7-0.4,3.4-0.9,5c-0.1,0.3,0,0.7,0.4,0.8c0.3,0.1,0.7,0,0.9-0.3
		c0-0.1,0-0.2,0.1-0.3c0,0,0.1,0,0.1,0h2c0.1,0,0.1,0,0.1-0.1c0,0,0.1-0.1,0.1-0.1V24.1c0-0.1,0-0.1-0.1-0.1S40.9,23.9,40.9,23.9z
		 M16.9,13.5c-1.2,1.1-2.1,2.4-2.9,3.8c-1.8,0.3-3.5,0.8-5.2,1.4C11,16.3,13.8,14.5,16.9,13.5z M7.4,20.7c1.9-0.8,3.9-1.5,5.9-1.9
		c-1.3,3.2-2,6.7-2.1,10.2H4.8C4.9,26.1,5.8,23.2,7.4,20.7z M7.4,38.7L7.4,38.7c-1.6-2.5-2.5-5.4-2.6-8.3h6.4c0,3.5,0.7,7,2.1,10.2
		C11.3,40.2,9.3,39.5,7.4,38.7z M8.9,40.7c1.7,0.6,3.4,1.1,5.1,1.4c0.7,1.4,1.7,2.7,2.9,3.8C13.8,45,11,43.2,8.9,40.7z M21,46.5
		c-2.1-0.3-3.9-1.8-5.4-4.2c1.8,0.3,3.6,0.4,5.4,0.4V46.5z M21,41.5c-2.1,0-4.1-0.2-6.2-0.6c-1.5-3.3-2.3-6.9-2.3-10.5H21V41.5z
		 M21,29.1h-8.5c0-3.6,0.8-7.2,2.3-10.5c2-0.4,4.1-0.6,6.2-0.6V29.1z M21,16.6c-1.8,0-3.6,0.2-5.4,0.4c1.5-2.4,3.3-3.9,5.4-4.2V16.6
		z M34.4,18.7c-1.7-0.6-3.4-1.1-5.1-1.4c-0.7-1.4-1.7-2.6-2.8-3.7C29.6,14.5,32.3,16.3,34.4,18.7z M22.3,12.9
		c2.1,0.3,3.9,1.8,5.4,4.2c-1.8-0.3-3.6-0.4-5.4-0.4V12.9z M22.3,29.1V17.9c2.1,0,4.1,0.2,6.2,0.6c1.5,3.3,2.3,6.9,2.3,10.5
		L22.3,29.1z M32.1,29.1c0-3.5-0.7-7-2.1-10.2c2,0.4,4,1.1,5.9,1.9c1.6,2.5,2.5,5.4,2.6,8.3H32.1z"/>
	<path fill="#ffffff" d="M51.3,23.9c0,0-0.1-0.1-0.1-0.1h-8.4c-0.1,0-0.1,0-0.1,0.1s-0.1,0.1-0.1,0.1v1.6c0,0.1,0,0.1,0.1,0.1
		s0.1,0.1,0.1,0.1h2.9c0.1,0,0.1,0,0.1,0.1v9.4c0,0.1,0,0.1,0.1,0.1c0,0,0.1,0.1,0.1,0.1h2c0.1,0,0.1,0,0.1-0.1c0,0,0.1-0.1,0.1-0.1
		V26c0-0.1,0-0.1,0.1-0.1h3c0.1,0,0.1,0,0.1-0.1s0.1-0.1,0.1-0.1v-1.6C51.4,24,51.4,24,51.3,23.9z"/>
</g>
</svg>
