<?xml version="1.0" encoding="utf-8"?>
<!-- Generator: Adobe Illustrator 27.4.0, SVG Export Plug-In . SVG Version: 6.00 Build 0)  -->
<svg version="1.2" baseProfile="tiny" id="Livello_1"
	 xmlns="http://www.w3.org/2000/svg" xmlns:xlink="http://www.w3.org/1999/xlink" x="0px" y="0px" viewBox="0 0 56.8 56.8"
	 overflow="visible" xml:space="preserve">
<path fill="#ffffff" d="M41.5,34.8C41.5,34.8,41.5,34.8,41.5,34.8l-2.9-6.3l-1.4-10.2c-0.4-3.5-3.2-6.3-6.7-6.6
	c-0.7-0.1-1.4-0.1-2.2-0.1c-0.8,0-1.5,0-2.2,0.1c-3.5,0.3-6.3,3.1-6.7,6.6l-1.4,10.2l-2.8,6.8v1.4c0.1,1.3,0.8,2.4,1.8,3.2l0.8,0.6
	c0.8,0.6,1.8,1,2.9,0.9H25c0,0.1,0,0.1,0,0.2c0,1.9,1.5,3.4,3.4,3.4s3.4-1.5,3.4-3.4c0-0.1,0-0.1,0-0.2h5.9c0.4,0,0.7-0.3,0.7-0.7
	c0-0.4-0.3-0.7-0.7-0.7H20.8c-0.7,0-1.4-0.2-1.9-0.7L18,38.7c-0.3-0.2-0.5-0.5-0.7-0.9l-0.5-1.5l0-0.9l2.7-6.6l1.3-9.1
	c0-4.7,3.6-6.6,7.4-6.6c0,0,0.1,0,0.1,0c0.1,0,0.1,0,0.2,0c3.8,0,7.4,1.8,7.4,6.6l1.3,8.9l2.9,6.5c0.1,0.4,0.5,0.6,0.9,0.5
	C41.4,35.6,41.6,35.2,41.5,34.8z M30.4,41.7c0,1.1-0.9,2-2,2c-1.1,0-2-0.9-2-2c0-0.1,0-0.1,0-0.2h4C30.4,41.5,30.4,41.6,30.4,41.7z"
	/>
</svg>
