<?xml version="1.0" encoding="utf-8"?>
<!-- Generator: Adobe Illustrator 27.4.0, SVG Export Plug-In . SVG Version: 6.00 Build 0)  -->
<svg version="1.2" baseProfile="tiny" id="Livello_1"
	 xmlns="http://www.w3.org/2000/svg" xmlns:xlink="http://www.w3.org/1999/xlink" x="0px" y="0px" viewBox="0 0 18 18"
	 overflow="visible" xml:space="preserve">
<path fill="#F9C206" d="M17.5,16.5L9.6,0.8c-0.3-0.5-1-0.5-1.2,0L0.5,16.5c-0.2,0.5,0.1,1,0.6,1h15.7C17.4,17.5,17.7,17,17.5,16.5z
	 M7.9,5.8c0,0,0.1,0,0.1,0h1.6c0,0,0.1,0,0.1,0c0,0,0,0.1,0,0.1l-0.2,5.9c0,0,0,0.1,0,0.1c0,0-0.1,0-0.1,0H8.1c0,0-0.1,0-0.1,0
	c0,0,0-0.1,0-0.1L7.8,5.9C7.8,5.9,7.8,5.8,7.9,5.8z M9.4,14.8C9.2,15,9,15.1,8.7,15.1c-0.3,0-0.6-0.1-0.8-0.3s-0.3-0.5-0.3-0.8
	c0-0.3,0.1-0.6,0.3-0.8C8.1,13.1,8.4,13,8.7,13c0.3,0,0.6,0.1,0.8,0.3c0.2,0.2,0.3,0.5,0.3,0.8C9.7,14.4,9.6,14.6,9.4,14.8z"/>
</svg>
