<?xml version="1.0" encoding="utf-8"?>
<!-- Generator: Adobe Illustrator 27.4.0, SVG Export Plug-In . SVG Version: 6.00 Build 0)  -->
<svg version="1.2" baseProfile="tiny" id="Livello_1"
	 xmlns="http://www.w3.org/2000/svg" xmlns:xlink="http://www.w3.org/1999/xlink" x="0px" y="0px" viewBox="0 0 18 18"
	 overflow="visible" xml:space="preserve">
<path fill="#CD1A41" d="M9,0C4,0,0,4,0,9c0,5,4,9,9,9c5,0,9-4,9-9C18,4,13.9,0,9,0z M7.9,4.1c0,0,0.1,0,0.1,0h1.6c0,0,0.1,0,0.1,0
	s0,0.1,0,0.1L9.5,10c0,0,0,0.1,0,0.1c0,0-0.1,0-0.1,0H8.1c0,0-0.1,0-0.1,0c0,0,0-0.1,0-0.1L7.8,4.2C7.8,4.1,7.8,4.1,7.9,4.1z
	 M9.4,13.1c-0.2,0.2-0.4,0.3-0.8,0.3c-0.3,0-0.6-0.1-0.8-0.3s-0.3-0.5-0.3-0.8c0-0.3,0.1-0.6,0.3-0.8c0.2-0.2,0.5-0.3,0.8-0.3
	c0.3,0,0.6,0.1,0.8,0.3c0.2,0.2,0.3,0.5,0.3,0.8C9.7,12.7,9.6,12.9,9.4,13.1z"/>
</svg>
